<svg xmlns="http://www.w3.org/2000/svg" aria-hidden="true" style="width:0;height:0;position:absolute;overflow:hidden"><defs><symbol id="icon-heart" viewBox="0 0 35 32"><path fill="#fd5103" d="m17.684 32-2.564-2.302C6.013 21.554 0 16.183 0 9.591 0 4.22 4.28 0 9.726 0c3.077 0 6.03 1.413 7.958 3.645C19.612 1.413 22.565 0 25.642 0c5.447 0 9.726 4.22 9.726 9.591 0 6.592-6.013 11.963-15.12 20.124l-2.564 2.284z" style="fill:var(--color1,#fd5103)"/><path d="m17.684 28.632-2.076-1.817c-7.373-6.429-12.24-10.67-12.24-15.874 0-4.24 3.464-7.572 7.874-7.572 2.491 0 4.882 1.115 6.442 2.877 1.56-1.762 3.951-2.877 6.442-2.877 4.409 0 7.874 3.332 7.874 7.572 0 5.204-4.867 9.444-12.24 15.888l-2.076 1.803z"/></symbol><symbol id="icon-arrow-left" viewBox="0 0 32 32"><path d="m14.545 16.667 6.788 6.741-1.939 1.926-8.727-8.667L19.394 8l1.939 1.926-6.788 6.741z"/></symbol><symbol id="icon-arrow-right" viewBox="0 0 32 32"><path d="m17.562 16-6.6-6.6 1.885-1.885L21.332 16l-8.485 8.485-1.885-1.885 6.6-6.6z"/></symbol><symbol id="icon-arrow-down" viewBox="0 0 32 32"><path d="m16.724 21.24 10.62-11.146a1.001 1.001 0 0 0 0-1.38l-.012-.012a.921.921 0 0 0-1.334 0l-10 10.496L6.002 8.702a.921.921 0 0 0-1.334 0l-.012.012a1.001 1.001 0 0 0 0 1.38l10.62 11.146a.994.994 0 0 0 .724.31.993.993 0 0 0 .724-.31z"/></symbol><symbol id="icon-down" viewBox="0 0 32 32"><path d="m7.791 12.791 7.543 7.543 7.543-7.543-.943-.943-6.6 6.6-6.6-6.6-.943.943z"/><path d="m7.791 12.791 7.543 7.543 7.543-7.543-.943-.943-6.6 6.6-6.6-6.6-.943.943z"/></symbol><symbol id="icon-cross-close" viewBox="0 0 32 32"><path d="m17.253 16 7.369-7.369a.886.886 0 0 0-.047-1.207.888.888 0 0 0-1.207-.047l-7.369 7.369L8.63 7.368A.892.892 0 0 0 7.368 8.63l7.378 7.369-7.378 7.369a.891.891 0 0 0-.249.999.881.881 0 0 0 .503.503.897.897 0 0 0 .712-.027.891.891 0 0 0 .288-.222L16 17.252l7.369 7.369a.886.886 0 0 0 1.207-.047.888.888 0 0 0 .047-1.207l-7.369-7.369z"/></symbol><symbol id="icon-menu-burger" viewBox="0 0 56 32"><path d="M1.882.941h52.706a1.882 1.882 0 1 1 0 3.764H1.882a1.882 1.882 0 1 1 0-3.764zM1.882 14.118h52.706a1.882 1.882 0 1 1 0 3.764H1.882a1.882 1.882 0 1 1 0-3.764zM1.882 27.294h52.706a1.882 1.882 0 1 1 0 3.764H1.882a1.882 1.882 0 1 1 0-3.764z"/></symbol><symbol id="icon-search-icon" viewBox="0 0 32 32"><path d="M13.44 23.68c2.272 0 4.478-.761 6.268-2.161l5.627 5.627 1.81-1.81-5.627-5.627a10.184 10.184 0 0 0 2.162-6.269c0-5.646-4.594-10.24-10.24-10.24S3.2 7.794 3.2 13.44s4.594 10.24 10.24 10.24zm0-17.92c4.236 0 7.68 3.444 7.68 7.68s-3.444 7.68-7.68 7.68-7.68-3.444-7.68-7.68 3.444-7.68 7.68-7.68z"/></symbol><symbol id="authorization" viewBox="0 0 31 32"><path fill="#fd5103" style="fill:var(--color1,#fd5103)" d="M15.543.762C7.132.762.305 7.589.305 16s6.827 15.238 15.238 15.238S30.781 24.411 30.781 16 23.954.762 15.543.762zm0 6.095c2.941 0 5.333 2.392 5.333 5.333s-2.392 5.333-5.333 5.333c-2.941 0-5.333-2.392-5.333-5.333s2.392-5.333 5.333-5.333zm0 21.333c-3.093 0-6.751-1.25-9.356-4.389a15.158 15.158 0 0 1 18.712 0c-2.606 3.139-6.263 4.389-9.356 4.389z"/></symbol></defs></svg>