<svg xmlns="http://www.w3.org/2000/svg" aria-hidden="true" style="position:absolute;width:0;height:0;overflow:hidden">
  <defs>
    <symbol id="icon-heart" viewBox="0 0 35 32">
      <path fill="#fd5103" d="m17.684 32-2.564-2.302C6.013 21.554 0 16.183 0 9.591 0 4.22 4.28 0 9.726 0c3.077 0 6.03 1.413 7.958 3.645C19.612 1.413 22.565 0 25.642 0c5.447 0 9.726 4.22 9.726 9.591 0 6.592-6.013 11.963-15.12 20.124l-2.564 2.284z" style="fill:var(--color1, #fd5103)"/>
      <path d="m17.684 28.632-2.076-1.817c-7.373-6.429-12.24-10.67-12.24-15.874 0-4.24 3.464-7.572 7.874-7.572 2.491 0 4.882 1.115 6.442 2.877 1.56-1.762 3.951-2.877 6.442-2.877 4.409 0 7.874 3.332 7.874 7.572 0 5.204-4.867 9.444-12.24 15.888l-2.076 1.803z"/>
    </symbol>
    <symbol id="icon-arrow-left" viewBox="0 0 32 32">
<path d="M14.545 16.667l6.788 6.741-1.939 1.926-8.727-8.667 8.727-8.667 1.939 1.926-6.788 6.741z"></path>
</symbol>
    <symbol id="icon-arrow-right" viewBox="0 0 32 32">
<path d="M17.562 16l-6.6-6.6 1.885-1.885 8.485 8.485-8.485 8.485-1.885-1.885 6.6-6.6z"></path>
</symbol>
    <symbol id="icon-arrow-down" viewBox="0 0 32 32">
<path d="M16.724 21.24l10.62-11.146c0.177-0.186 0.276-0.433 0.276-0.69s-0.099-0.504-0.276-0.69l-0.012-0.012c-0.086-0.090-0.189-0.163-0.304-0.212s-0.238-0.075-0.363-0.075c-0.125 0-0.248 0.025-0.363 0.075s-0.218 0.121-0.304 0.212l-10 10.496-9.996-10.496c-0.086-0.090-0.189-0.163-0.304-0.212s-0.238-0.075-0.363-0.075c-0.125 0-0.248 0.025-0.363 0.075s-0.218 0.121-0.304 0.212l-0.012 0.012c-0.177 0.186-0.276 0.433-0.276 0.69s0.099 0.504 0.276 0.69l10.62 11.146c0.093 0.098 0.206 0.176 0.33 0.229s0.258 0.081 0.394 0.081c0.135 0 0.269-0.027 0.394-0.081s0.237-0.131 0.33-0.229z"></path>
</symbol>
   <symbol id="icon-cross-close" viewBox="0 0 32 32">
<path d="M17.253 16l7.369-7.369c0.146-0.17 0.222-0.389 0.213-0.613s-0.101-0.436-0.26-0.594-0.371-0.251-0.594-0.26c-0.224-0.009-0.442 0.067-0.613 0.213l-7.369 7.369-7.369-7.378c-0.167-0.167-0.394-0.261-0.631-0.261s-0.464 0.094-0.631 0.261c-0.167 0.167-0.261 0.394-0.261 0.631s0.094 0.464 0.261 0.631l7.378 7.369-7.378 7.369c-0.093 0.080-0.169 0.178-0.222 0.288s-0.083 0.23-0.088 0.353 0.016 0.244 0.061 0.358c0.045 0.114 0.112 0.218 0.199 0.304s0.19 0.154 0.304 0.199 0.236 0.065 0.359 0.061c0.122-0.005 0.243-0.035 0.353-0.088s0.208-0.129 0.288-0.222l7.378-7.369 7.369 7.369c0.17 0.146 0.389 0.222 0.613 0.213s0.436-0.101 0.594-0.26 0.251-0.371 0.26-0.594c0.009-0.224-0.067-0.442-0.213-0.613l-7.369-7.369z"></path>
</symbol>
  <symbol id="icon-menu-burger" viewBox="0 0 56 32">
<path d="M1.882 0.941h52.706c1.040 0 1.882 0.843 1.882 1.882s-0.843 1.882-1.882 1.882h-52.706c-1.040 0-1.882-0.843-1.882-1.882s0.843-1.882 1.882-1.882z"></path>
<path d="M1.882 14.118h52.706c1.040 0 1.882 0.843 1.882 1.882s-0.843 1.882-1.882 1.882h-52.706c-1.040 0-1.882-0.843-1.882-1.882s0.843-1.882 1.882-1.882z"></path>
<path d="M1.882 27.294h52.706c1.040 0 1.882 0.843 1.882 1.882s-0.843 1.882-1.882 1.882h-52.706c-1.040 0-1.882-0.843-1.882-1.882s0.843-1.882 1.882-1.882z"></path>
</symbol>
    <symbol id="icon-search-icon" viewBox="0 0 32 32">
      <path d="M13.44 23.68c2.272-0 4.478-0.761 6.268-2.161l5.627 5.627 1.81-1.81-5.627-5.627c1.4-1.79 2.161-3.997 2.162-6.269 0-5.646-4.594-10.24-10.24-10.24s-10.24 4.594-10.24 10.24c0 5.646 4.594 10.24 10.24 10.24zM13.44 5.76c4.236 0 7.68 3.444 7.68 7.68s-3.444 7.68-7.68 7.68c-4.236 0-7.68-3.444-7.68-7.68s3.444-7.68 7.68-7.68z"></path>
    </symbol>
  </defs>
</svg>
